<?xml version="1.0" encoding="utf-8"?>
<!-- Generator: Adobe Illustrator 24.0.0, SVG Export Plug-In . SVG Version: 6.00 Build 0)  -->
<svg version="1.1" id="Layer_1" xmlns="http://www.w3.org/2000/svg" xmlns:xlink="http://www.w3.org/1999/xlink" x="0px" y="0px"
	 viewBox="0 0 288 288" style="enable-background:new 0 0 288 288;" xml:space="preserve">
<style type="text/css">
	.st0{fill:#FFFFFF;stroke:#FFFFFF;stroke-width:2;stroke-miterlimit:10;}
</style>
<g>
	<path class="st0" d="M7.1,19.4L80,68.7c4.3,2.9,10.3,1.8,13.2-2.6l0,0c2.9-4.3,1.8-10.3-2.6-13.2L17.7,3.7
		C13.4,0.7,7.5,1.9,4.5,6.2l0,0C1.6,10.6,2.7,16.5,7.1,19.4z"/>
	<path class="st0" d="M15.8,117.8l74.3-47.2c4.4-2.8,5.7-8.7,2.9-13.1l0,0c-2.8-4.4-8.7-5.7-13.1-2.9L5.6,101.8
		c-4.4,2.8-5.7,8.7-2.9,13.1l0,0C5.5,119.3,11.4,120.6,15.8,117.8z"/>
</g>
</svg>
