<?xml version="1.0" encoding="utf-8"?>
<!-- Generator: Adobe Illustrator 24.0.0, SVG Export Plug-In . SVG Version: 6.00 Build 0)  -->
<svg version="1.1" id="Layer_1" xmlns="http://www.w3.org/2000/svg" xmlns:xlink="http://www.w3.org/1999/xlink" x="0px" y="0px"
	 viewBox="0 0 288 288" style="enable-background:new 0 0 288 288;" xml:space="preserve">
<style type="text/css">
	.st0{fill:#FFFFFF;stroke:#FFFFFF;stroke-width:2;stroke-miterlimit:10;}
</style>
<g>
	<path class="st0" d="M89,19.4L16,68.7c-4.3,2.9-10.3,1.8-13.2-2.6l0,0c-2.9-4.3-1.8-10.3,2.6-13.2L78.4,3.7
		c4.3-2.9,10.3-1.8,13.2,2.6l0,0C94.5,10.6,93.3,16.5,89,19.4z"/>
	<path class="st0" d="M80.2,117.8L6,70.6c-4.4-2.8-5.7-8.7-2.9-13.1l0,0c2.8-4.4,8.7-5.7,13.1-2.9l74.3,47.2
		c4.4,2.8,5.7,8.7,2.9,13.1l0,0C90.5,119.3,84.7,120.6,80.2,117.8z"/>
</g>
</svg>
