<?xml version="1.0" encoding="utf-8"?>
<!-- Generator: Adobe Illustrator 24.0.0, SVG Export Plug-In . SVG Version: 6.00 Build 0)  -->
<svg version="1.1" id="Layer_1" xmlns="http://www.w3.org/2000/svg" xmlns:xlink="http://www.w3.org/1999/xlink" x="0px" y="0px"
	 viewBox="0 0 288 288" style="enable-background:new 0 0 288 288;" xml:space="preserve">
<style type="text/css">
	.st0{fill:#E2F7F3;stroke:#FFFFFF;stroke-width:8;stroke-miterlimit:10;}
	.st1{fill:none;}
	.st2{fill:#FA92A4;}
	.st3{font-family:'Bryant-BoldAlt';}
	.st4{font-size:78.8514px;}
	.st5{font-family:'Bryant-Medium';}
	.st6{font-size:76.8801px;}
	.st7{fill:#FBDAE0;}
	.st8{fill:#2FC6B1;}
	.st9{fill:#E2F7F3;}
	.st10{fill:#7CD7C8;}
</style>
<g>
	<circle class="st0" cx="143.5" cy="143.3" r="139.7"/>
	<rect x="24.7" y="83.2" class="st1" width="71" height="85.7"/>
	<text transform="matrix(0 -1 1 0 77.9312 168.9043)" class="st2 st3 st4">A</text>
	
		<rect x="205.7" y="122.8" transform="matrix(3.572406e-03 -1 1 3.572406e-03 88.1605 390.7878)" class="st1" width="69" height="56.7"/>
	<text transform="matrix(1 0 0 1 211.9111 168.4287)" class="st2 st5 st6">D</text>
	<path class="st2" d="M211.8,162v5.2c0,1-0.8,1.8-1.8,1.8H86.3c-1,0-1.8-0.8-1.8-1.8V162c0-1,0.8-1.8,1.8-1.8H210
		C211,160.2,211.8,161,211.8,162z"/>
	<path class="st2" d="M211.8,119.1v5.2c0,1-0.8,1.8-1.8,1.8H86.3c-1,0-1.8-0.8-1.8-1.8v-5.2c0-1,0.8-1.8,1.8-1.8H210
		C211,117.2,211.8,118,211.8,119.1z"/>
	<path class="st7" d="M211.8,140.9v5.2c0,1-0.8,1.8-1.8,1.8H86.3c-1,0-1.8-0.8-1.8-1.8v-5.2c0-1,0.8-1.8,1.8-1.8H210
		C211,139,211.8,139.9,211.8,140.9z"/>
	<rect x="118.1" y="24" class="st1" width="85.7" height="71"/>
	<text transform="matrix(1 0 0 1 118.1211 77.2129)" class="st8 st3 st4">A</text>
	<rect x="101.2" y="211.1" class="st1" width="69" height="58.5"/>
	<text transform="matrix(0 1 -1 0 118.3862 211.084)" class="st8 st5 st6">D</text>
	<rect x="119.3" y="80.4" class="st9" width="46" height="129.9"/>
	<path class="st8" d="M125,211.1h-5.2c-1,0-1.8-0.8-1.8-1.8V85.6c0-1,0.8-1.8,1.8-1.8h5.2c1,0,1.8,0.8,1.8,1.8v123.6
		C126.9,210.3,126,211.1,125,211.1z"/>
	<path class="st8" d="M168,211.1h-5.2c-1,0-1.8-0.8-1.8-1.8V85.6c0-1,0.8-1.8,1.8-1.8h5.2c1,0,1.8,0.8,1.8,1.8v123.6
		C169.8,210.3,169,211.1,168,211.1z"/>
	<path class="st10" d="M146.1,211.1h-5.2c-1,0-1.8-0.8-1.8-1.8V85.6c0-1,0.8-1.8,1.8-1.8h5.2c1,0,1.8,0.8,1.8,1.8v123.6
		C148,210.3,147.2,211.1,146.1,211.1z"/>
</g>
</svg>
