<?xml version="1.0" encoding="utf-8"?>
<!-- Generator: Adobe Illustrator 24.0.0, SVG Export Plug-In . SVG Version: 6.00 Build 0)  -->
<svg version="1.1" id="Layer_1" xmlns="http://www.w3.org/2000/svg" xmlns:xlink="http://www.w3.org/1999/xlink" x="0px" y="0px"
	 viewBox="0 0 288 288" style="enable-background:new 0 0 288 288;" xml:space="preserve">
<style type="text/css">
	.st0{fill:#FFFFFF;}
	.st1{clip-path:url(#SVGID_2_);fill:#F7DDE2;}
	.st2{clip-path:url(#SVGID_2_);fill:#BD9F97;}
	.st3{clip-path:url(#SVGID_2_);fill:#272121;}
	.st4{clip-path:url(#SVGID_2_);fill:#FFFFFF;}
	.st5{clip-path:url(#SVGID_2_);fill:#CDBDC1;}
	.st6{opacity:0.66;clip-path:url(#SVGID_2_);fill:#FFD4D5;}
	.st7{clip-path:url(#SVGID_2_);fill:#1D1613;}
	.st8{clip-path:url(#SVGID_2_);fill:#251917;}
	.st9{clip-path:url(#SVGID_2_);fill:#E6EDF8;}
	.st10{clip-path:url(#SVGID_2_);fill:#FF7687;}
	.st11{clip-path:url(#SVGID_2_);}
	.st12{clip-path:url(#SVGID_4_);fill:#DF8EA1;}
	.st13{fill:#CC738A;}
	.st14{fill:#EBA6B6;}
	.st15{fill:#A95E78;}
	.st16{fill:#E6EDF8;}
	.st17{fill:#F5B5C2;}
</style>
<g>
	<circle class="st0" cx="144.1" cy="143.9" r="143.9"/>
	<g>
		<defs>
			<circle id="SVGID_1_" cx="143.5" cy="144.3" r="136.7"/>
		</defs>
		<use xlink:href="#SVGID_1_"  style="overflow:visible;fill:#DF8EA1;"/>
		<clipPath id="SVGID_2_">
			<use xlink:href="#SVGID_1_"  style="overflow:visible;"/>
		</clipPath>
		<circle class="st1" cx="143.5" cy="144.3" r="136.7"/>
		<path class="st2" d="M157.3,189.9h-21.8c-29.6,0-53.6-24-53.6-53.6V94.2c0-29.6,24-53.6,53.6-53.6h21.8c29.6,0,53.6,24,53.6,53.6
			v42.1C210.9,165.9,186.9,189.9,157.3,189.9z"/>
		<rect x="135.5" y="177.9" class="st2" width="21.8" height="32.6"/>
		<path class="st3" d="M150.3,60.9c-28.9,27.3-34.2,31.9-34.2,31.9c-15.7,13.5-32.6,26.4-32.6,26.4c0,0,0.7,24.3,7,35.7
			c13.3,24.3,38.2,32.2,45.1,34.2c1,112.8-3.4,137.2-7.8,137.5c-4.6,0.4-7.6-25.5-24.9-72.3c-18.2-49.3-25.5-49.5-31.9-74.6
			C63.1,148.3,56.6,77,101.3,48.4c29.2-18.6,74-15.1,100.2,8.5c29.8,26.9,26.3,71.1,24.1,97.9c-0.2,2.3-0.4,4.2-0.4,4.5
			c-3.7,35.3-19.5,59.5-25.2,69.3c-28,48-18.1,98.8-25.6,98.7c-8.5-0.1-16.1-64.2-17.1-114.2c-0.2-9.8-0.1-18.1,0-24.1
			c5.4-1.1,20.7-4.9,33.4-18.6c15.4-16.7,16.2-36.3,16.3-41.2c-15.1-14.8-26-27.9-33.4-37.3C164.5,80.4,150.3,60.9,150.3,60.9z"/>
		<path class="st4" d="M123.1,161.7c0.8,1.6,6.4,12.6,18,15c10.8,2.3,22.4-3.6,28.6-15"/>
		<polygon class="st5" points="146.6,130.6 139.8,145.6 153.4,145.6 		"/>
		<ellipse class="st6" cx="184.3" cy="146" rx="8.9" ry="7.4"/>
		<ellipse class="st6" cx="104.2" cy="146" rx="8.9" ry="7.4"/>
		<circle class="st7" cx="177.9" cy="129.6" r="7.3"/>
		<circle class="st7" cx="112.5" cy="129.6" r="7.3"/>
		<path class="st8" d="M150.3,60.9c-28.9,27.3-34.2,31.9-34.2,31.9c-15.7,13.5-32.6,26.4-32.6,26.4c0,0,0.7,24.3,7,35.7
			c13.3,24.3,38.2,32.2,45.1,34.2c4.7,64.5,6.7,134.5-7.8,137.5c-13,2.7-33.4-49.6-36.1-56.6c-23.2-59.5-49.4-183.6,9.6-221.6
			c29.2-18.8,75.4-13.8,100.2,8.5c29.8,26.9,26.3,71.1,24.1,97.9c0,0.3-0.2,1.7-0.4,4.5c-3.2,35-6.9,67.9-8.3,77.8
			c-5.9,41-30,92.3-42.6,90.2c-15.1-2.5-16.5-81.7-17.1-114.2c-0.2-9.8-0.1-18.1,0-24.1c5.4-1.1,20.7-4.9,33.4-18.6
			c15.4-16.7,16.2-36.3,16.3-41.2c-15.1-14.8-26-27.9-33.4-37.3C164.5,80.4,150.3,60.9,150.3,60.9z"/>
		<ellipse class="st9" cx="206.2" cy="153.6" rx="6.3" ry="15.6"/>
		<ellipse class="st8" cx="205.9" cy="150.5" rx="3.1" ry="7.6"/>
		<ellipse class="st9" cx="81.9" cy="153.6" rx="6.3" ry="15.6"/>
		<ellipse class="st8" cx="81.5" cy="150.5" rx="3.1" ry="7.6"/>
		<path class="st10" d="M80.3,262.5"/>
		<path class="st2" d="M222.3,262.1c0.7,7,1,10.6,0,12.8c-4.9,11.1-26.2,8.2-70.6,7.8c-46-0.4-64,2.2-70.6-9.6
			c-3.5-6.3-3.1-15.4-2.7-23.8c0-0.8,0.8-14.9,5.3-24.7c13-28.3,61-29.2,63.1-29.2c23.6-0.2,58.2,8.9,68.4,32
			C220,238.4,221.9,258.2,222.3,262.1z"/>
		<g class="st11">
			<defs>
				<path id="SVGID_3_" d="M130.8,192.8l16,37.3l16.9-36.4l70.2,13.3l0.9,60.4c-14.4,7-44.2,19.2-83.5,17.8
					c-44.4-1.6-76.2-19.6-89.7-28.4c7.7-16.9,15.4-33.8,23.1-50.6L130.8,192.8z"/>
			</defs>
			<clipPath id="SVGID_4_">
				<use xlink:href="#SVGID_3_"  style="overflow:visible;"/>
			</clipPath>
			<path class="st12" d="M222.2,262.7c0.7,7.1,1,10.8,0,13c-4.9,11.2-26.2,8.3-70.6,7.9c-46-0.4-64,2.2-70.6-9.8
				c-3.5-6.4-3.1-15.6-2.7-24.1c0-0.8,0.8-15.1,5.3-25c13-28.6,61-29.6,63.1-29.6c23.6-0.2,58.2,9,68.4,32.4
				C220,238.7,221.8,258.7,222.2,262.7z"/>
		</g>
	</g>
	<path class="st13" d="M146.8,230.1l1.1,50.2c6.4-0.2,13.5-0.9,21.1-2.3c22.9-4.3,40.6-13.5,52.4-21.3c-0.1-6.3-1-15.9-5.3-26.6
		c-2.2-5.5-4.8-11.8-10.7-17.8c-9.1-9.1-20.4-11.6-26-12.3c-7.4,3.5-14.7,7-22.1,10.5l4.6,6.2L146.8,230.1z"/>
	<path class="st14" d="M157.4,193.7c8,1.8,16,3.6,24,5.3c-7.1,4.1-14.2,8.3-21.3,12.4c3.3,0.6,6.5,1.2,9.8,1.8
		c-7.7,8.9-15.4,17.8-23.1,26.6C150.3,224.5,153.9,209.1,157.4,193.7z"/>
	<circle class="st15" cx="155.2" cy="248.3" r="4"/>
	<circle class="st15" cx="155.2" cy="271.4" r="4"/>
	<rect x="135.2" y="191" class="st16" width="23.1" height="2.7"/>
	<path class="st16" d="M137.9,205.2c3,11.5,5.9,23.1,8.9,34.6c2.7-11.5,5.3-23.1,8-34.6C149.1,205.2,143.5,205.2,137.9,205.2z"/>
	<path class="st17" d="M136.1,194.5c-7.9,1.7-15.7,3.4-23.6,5.1c7,3.9,13.9,7.8,20.9,11.8c-3.3,0.6-6.5,1.2-9.8,1.8
		c7.7,8.9,15.4,17.8,23.1,26.6C143.2,224.7,139.7,209.6,136.1,194.5z"/>
</g>
</svg>
