<?xml version="1.0" encoding="utf-8"?>
<!-- Generator: Adobe Illustrator 24.0.0, SVG Export Plug-In . SVG Version: 6.00 Build 0)  -->
<svg version="1.1" id="Layer_1" xmlns="http://www.w3.org/2000/svg" xmlns:xlink="http://www.w3.org/1999/xlink" x="0px" y="0px"
	 viewBox="0 0 379 768" style="enable-background:new 0 0 379 768;" xml:space="preserve">
<style type="text/css">
	.st0{fill:#B8CFF1;}
	.st1{fill:#F1F8FF;stroke:#FFFFFF;stroke-width:8;stroke-miterlimit:10;}
	.st2{fill:none;}
	.st3{fill:#FF7687;}
	.st4{font-family:'Bryant-BoldAlt';}
	.st5{font-size:93.2805px;}
	.st6{font-family:'Bryant-Medium';}
	.st7{font-size:90.9485px;}
	.st8{fill:#FDC8D1;}
	.st9{fill:#6698D4;}
	.st10{fill:#F1F8FF;}
	.st11{fill:#A9CDED;}
</style>
<rect x="37.1" y="0" class="st0" width="267.9" height="768"/>
<g>
	<circle class="st1" cx="173.3" cy="263.4" r="165.2"/>
	<rect x="32.7" y="192.3" class="st2" width="84" height="101.3"/>
	<text transform="matrix(0 -1 1 0 95.6911 293.6865)" class="st3 st4 st5">A</text>
	
		<rect x="263.9" y="222.1" transform="matrix(3.572692e-03 -1 1 3.572692e-03 30.9009 576.5104)" class="st2" width="81.7" height="101.3"/>
	<text transform="matrix(1 0 0 1 254.1872 293.1216)" class="st3 st6 st7">D</text>
	<path class="st3" d="M254.1,285.2v6.8c0,1-0.8,1.8-1.8,1.8H105.3c-1,0-1.8-0.8-1.8-1.8v-6.8c0-1,0.8-1.8,1.8-1.8h146.9
		C253.2,283.3,254.1,284.2,254.1,285.2z"/>
	<path class="st3" d="M254.1,234.4v6.8c0,1-0.8,1.8-1.8,1.8H105.3c-1,0-1.8-0.8-1.8-1.8v-6.8c0-1,0.8-1.8,1.8-1.8h146.9
		C253.3,232.5,254.1,233.4,254.1,234.4z"/>
	<path class="st8" d="M254.1,260.2v6.8c0,1-0.8,1.8-1.8,1.8H105.3c-1,0-1.8-0.8-1.8-1.8v-6.8c0-1,0.8-1.8,1.8-1.8h146.9
		C253.2,258.3,254.1,259.2,254.1,260.2z"/>
	<rect x="143.2" y="122.3" class="st2" width="101.3" height="84"/>
	<text transform="matrix(1 0 0 1 143.2346 185.2153)" class="st9 st4 st5">A</text>
	<rect x="123.3" y="343.6" class="st2" width="81.7" height="101.3"/>
	<text transform="matrix(0 1 -1 0 143.5837 343.584)" class="st9 st6 st7">D</text>
	<rect x="144.7" y="188.9" class="st10" width="54.4" height="153.7"/>
	<path class="st9" d="M151.7,343.6h-6.8c-1,0-1.8-0.8-1.8-1.8V194.8c0-1,0.8-1.8,1.8-1.8h6.8c1,0,1.8,0.8,1.8,1.8v146.9
		C153.6,342.8,152.8,343.6,151.7,343.6z"/>
	<path class="st9" d="M202.5,343.6h-6.8c-1,0-1.8-0.8-1.8-1.8V194.8c0-1,0.8-1.8,1.8-1.8h6.8c1,0,1.8,0.8,1.8,1.8v146.9
		C204.4,342.8,203.6,343.6,202.5,343.6z"/>
	<path class="st11" d="M176.7,343.6h-6.8c-1,0-1.8-0.8-1.8-1.8V194.8c0-1,0.8-1.8,1.8-1.8h6.8c1,0,1.8,0.8,1.8,1.8v146.9
		C178.6,342.8,177.7,343.6,176.7,343.6z"/>
</g>
</svg>
