<?xml version="1.0" encoding="utf-8"?>
<!-- Generator: Adobe Illustrator 24.0.0, SVG Export Plug-In . SVG Version: 6.00 Build 0)  -->
<svg version="1.1" id="Layer_1" xmlns="http://www.w3.org/2000/svg" xmlns:xlink="http://www.w3.org/1999/xlink" x="0px" y="0px"
	 viewBox="0 0 288 288" style="enable-background:new 0 0 288 288;" xml:space="preserve">
<style type="text/css">
	.st0{fill:#F1F8FF;}
	.st1{fill:none;}
	.st2{fill:#FF7687;}
	.st3{font-family:'Bryant-BoldAlt';}
	.st4{font-size:80.3557px;}
	.st5{font-family:'Bryant-Medium';}
	.st6{font-size:78.3468px;}
	.st7{fill:#FDC8D1;}
	.st8{fill:#6698D4;}
	.st9{fill:#A9CDED;}
</style>
<g>
	<circle class="st0" cx="144.4" cy="144.3" r="142.3"/>
	<rect x="23.3" y="83.1" class="st1" width="72.4" height="87.3"/>
	<text transform="matrix(0 -1 1 0 77.5381 170.4014)" class="st2 st3 st4">A</text>
	
		<rect x="222.4" y="108.7" transform="matrix(3.572692e-03 -1 1 3.572692e-03 104.334 409.4387)" class="st1" width="70.4" height="87.3"/>
	<text transform="matrix(1 0 0 1 214.0737 169.915)" class="st2 st5 st6">D</text>
	<path class="st2" d="M214,163.3v5.4c0,1-0.8,1.8-1.8,1.8H86c-1,0-1.8-0.8-1.8-1.8v-5.4c0-1,0.8-1.8,1.8-1.8h126.1
		C213.1,161.5,214,162.3,214,163.3z"/>
	<path class="st2" d="M214,119.6v5.4c0,1-0.8,1.8-1.8,1.8H86.1c-1,0-1.8-0.8-1.8-1.8v-5.4c0-1,0.8-1.8,1.8-1.8h126.1
		C213.2,117.7,214,118.6,214,119.6z"/>
	<path class="st7" d="M214,141.8v5.4c0,1-0.8,1.8-1.8,1.8H86c-1,0-1.8-0.8-1.8-1.8v-5.4c0-1,0.8-1.8,1.8-1.8h126.1
		C213.1,140,214,140.8,214,141.8z"/>
	<rect x="118.5" y="22.7" class="st1" width="87.3" height="72.4"/>
	<text transform="matrix(1 0 0 1 118.4941 76.96)" class="st8 st3 st4">A</text>
	<rect x="101.3" y="213.4" class="st1" width="70.4" height="87.3"/>
	<text transform="matrix(0 1 -1 0 118.7949 213.3848)" class="st8 st5 st6">D</text>
	<rect x="119.7" y="80.2" class="st0" width="46.9" height="132.4"/>
	<path class="st8" d="M125.6,213.4h-5.4c-1,0-1.8-0.8-1.8-1.8V85.5c0-1,0.8-1.8,1.8-1.8h5.4c1,0,1.8,0.8,1.8,1.8v126.1
		C127.4,212.6,126.6,213.4,125.6,213.4z"/>
	<path class="st8" d="M169.3,213.4h-5.4c-1,0-1.8-0.8-1.8-1.8V85.5c0-1,0.8-1.8,1.8-1.8h5.4c1,0,1.8,0.8,1.8,1.8v126.1
		C171.2,212.6,170.3,213.4,169.3,213.4z"/>
	<path class="st9" d="M147.1,213.4h-5.4c-1,0-1.8-0.8-1.8-1.8V85.5c0-1,0.8-1.8,1.8-1.8h5.4c1,0,1.8,0.8,1.8,1.8v126.1
		C148.9,212.6,148.1,213.4,147.1,213.4z"/>
</g>
</svg>
